Patient4_TMGait_0pt2_03_left_06_GRF.mot
version=1
nRows=58
nColumns=19
inDegrees=no
endheader
time	F1x	F1y	F1z	M1x	M1y	M1z	F2x	F2y	F2z	M2x	M2y	M2z	EC1x	EC1y	EC1z	EC2x	EC2y	EC2z
11.69	0.70854	2.8325	2.078	-1.0276	-1.7002	1.3277	-10.1281	769.9145	-36.1629	310.9723	45.9137	860.6137	-0.0592	0.0182	-0.0073	-0.0462	0.0165	0.9585
11.7111	0.16849	2.0581	1.5636	-0.73875	-1.4096	1.0519	-12.7246	791.8262	-33.7137	321.1863	44.1151	884.6308	-0.0592	0.0182	-0.0073	-0.0462	0.0165	0.9585
11.7321	-0.29131	1.4106	1.1308	-0.4997	-1.1712	0.82699	-15.5858	815.8235	-31.0495	332.4	42.0919	910.8354	-0.0592	0.0182	-0.0073	-0.0462	0.0165	0.9585
11.7532	-0.64439	0.92694	0.80138	-0.32276	-0.99566	0.66194	-18.4711	839.2145	-28.4878	343.3545	40.0646	936.2112	-0.0592	0.0182	-0.0073	-0.0462	0.0165	0.9585
11.7743	-0.89315	0.59711	0.57316	-0.20398	-0.88049	0.55281	-21.142	859.042	-26.3361	352.6802	38.261	957.4536	-0.0592	0.0182	-0.0073	-0.0462	0.0165	0.9585
11.7954	-1.055	0.38612	0.43108	-0.12949	-0.81541	0.48152	-23.3813	872.7118	-24.7928	359.1906	36.8247	971.6766	-0.0592	0.0182	-0.0073	-0.0462	0.0165	0.9585
11.8164	-1.1516	0.24343	0.35634	-0.080945	-0.78874	0.4148	-25.0093	878.4232	-23.9336	362.0735	35.8001	976.8815	-0.0592	0.0182	-0.0073	-0.0462	0.0165	0.9585
11.8375	-1.2034	0.11069	0.33017	-0.038327	-0.78915	0.30425	-25.8924	875.4281	-23.7198	361.0027	35.1412	972.2409	-0.0592	0.0182	-0.0073	-0.0462	0.0165	0.9585
11.8586	-1.2252	-0.072763	0.33601	0.018222	-0.80867	0.097821	-25.9518	864.113	-24.0259	356.1686	34.734	958.1736	-0.0592	0.0182	-0.0073	-0.0462	0.0165	0.9585
11.8796	-1.2274	-0.36398	0.35729	0.10853	-0.83661	-0.25481	-25.1193	845.9628	-24.6687	348.2513	34.4054	936.284	-0.0592	0.0182	-0.0073	-0.0462	0.0165	0.9585
11.9007	-1.2156	-0.81465	0.37854	0.25032	-0.85855	-0.80198	-23.3186	823.3008	-25.451	338.2991	33.9607	909.0669	-0.0592	0.0182	-0.0073	-0.0462	0.0165	0.9585
11.9218	-1.1873	-1.4604	0.38629	0.45561	-0.85611	-1.5853	-20.495	798.8459	-26.1978	327.5255	33.2258	879.4419	-0.0592	0.0182	-0.0073	-0.0462	0.0165	0.9585
11.9429	-1.1323	-2.3087	0.36859	0.7259	-0.80791	-2.6119	-16.6629	775.2162	-26.7954	317.0887	32.1018	850.2421	-0.0592	0.0182	-0.0073	-0.0462	0.0165	0.9585
11.9639	-1.034	-3.3146	0.31127	1.0453	-0.69185	-3.8254	-11.9273	754.5176	-27.218	307.9125	30.5994	823.7837	-0.0592	0.0182	-0.0073	-0.0462	0.0165	0.9585
11.985	-0.87003	-4.3437	0.19819	1.3705	-0.48477	-5.0653	-6.4993	738.1514	-27.5261	300.6043	28.8417	801.6754	-0.0592	0.0182	-0.0073	-0.0462	0.0165	0.9585
12.0061	-0.61919	-5.1318	0.01369	1.6175	-0.16476	-6.0149	-0.7132	726.7772	-27.8368	295.444	27.0456	784.7895	-0.0592	0.0182	-0.0073	-0.0462	0.0165	0.9585
12.0271	-0.26931	-5.251	-0.25173	1.6517	0.27905	-6.1537	4.9994	720.3606	-28.2891	292.4093	25.4848	773.3001	-0.0592	0.0182	-0.0073	-0.0462	0.0165	0.9585
12.0482	0.16912	-4.0856	-0.59084	1.2789	0.83083	-4.7347	10.1804	718.2655	-29.0243	291.2191	24.4499	766.7457	-0.0592	0.0182	-0.0073	-0.0462	0.0165	0.9585
12.0693	0.65135	-0.82727	-0.96788	0.24321	1.4323	-0.78022	14.4531	719.4142	-30.1509	291.407	24.1724	764.1478	-0.0592	0.0182	-0.0073	-0.0462	0.0165	0.9585
12.0904	1.0881	5.4704	-1.3069	-1.7567	1.9642	6.8601	17.6165	722.4978	-31.6913	292.4165	24.7357	764.1981	-0.0592	0.0182	-0.0073	-0.0462	0.0165	0.9585
12.1114	1.3322	15.7679	-1.4801	-5.0294	2.2223	19.3661	19.6314	726.1278	-33.56	293.6686	26.0561	765.4165	-0.0592	0.0182	-0.0073	-0.0462	0.0165	0.9585
12.1325	1.1585	30.8054	-1.2983	-9.8121	1.8961	37.6532	20.5733	728.8583	-35.5822	294.5707	27.9192	766.212	-0.0592	0.0182	-0.0073	-0.0462	0.0165	0.9585
12.1536	0.26372	50.7312	-0.50383	-16.1519	0.56951	61.9062	20.6102	729.1207	-37.5334	294.4865	30.0225	764.8616	-0.0592	0.0182	-0.0073	-0.0462	0.0165	0.9585
12.1746	-1.562	74.708	1.159	-23.7741	-2.1361	91.1181	19.9422	725.2768	-39.1642	292.7572	32.0245	759.5825	-0.0592	0.0182	-0.0073	-0.0462	0.0165	0.9585
12.1957	-4.21	100.6023	3.7306	-31.9853	-6.2184	122.7418	18.759	715.9835	-40.2462	288.8459	33.614	748.9176	-0.0592	0.0182	-0.0073	-0.0462	0.0165	0.9585
12.2168	-7.2322	125.1532	6.881	-39.7451	-11.1104	152.8683	17.2766	700.7381	-40.6564	282.5526	34.5851	732.279	-0.0592	0.0182	-0.0073	-0.0462	0.0165	0.9585
12.2379	-10.0511	145.8814	10.009	-46.2812	-15.8922	178.4873	15.7784	680.3075	-40.4214	274.184	34.8685	710.3605	-0.0592	0.0182	-0.0073	-0.0462	0.0165	0.9585
12.2589	-12.3867	162.6027	12.59	-51.5599	-19.8404	199.3143	14.5481	656.4851	-39.691	264.4591	34.5248	684.8989	-0.0592	0.0182	-0.0073	-0.0462	0.0165	0.9585
12.28	-14.2143	176.6931	14.3772	-56.037	-22.6483	216.9161	13.7427	631.2961	-38.6499	254.197	33.6993	657.9011	-0.0592	0.0182	-0.0073	-0.0462	0.0165	0.9585
12.3011	-15.5895	189.9434	15.4265	-60.2821	-24.3922	233.3223	13.3344	606.3257	-37.4648	244.0453	32.5877	630.9762	-0.0592	0.0182	-0.0073	-0.0462	0.0165	0.9585
12.3221	-16.5683	204.0103	16.0253	-64.8028	-25.4232	250.3703	13.1611	582.4036	-36.2787	234.3469	31.4091	605.001	-0.0592	0.0182	-0.0073	-0.0462	0.0165	0.9585
12.3432	-17.204	220.2068	16.5351	-69.9902	-26.1816	269.4762	13.0209	559.5523	-35.1836	225.1195	30.3419	580.0582	-0.0592	0.0182	-0.0073	-0.0462	0.0165	0.9585
12.3643	-17.5377	239.4869	17.2744	-76.1248	-27.0543	291.6273	12.7614	537.1468	-34.176	216.1208	29.4448	555.5806	-0.0592	0.0182	-0.0073	-0.0462	0.0165	0.9585
12.3854	-17.6134	262.5771	18.4748	-83.4248	-28.3287	317.5542	12.3396	514.1585	-33.1543	206.9437	28.634	530.5841	-0.0592	0.0182	-0.0073	-0.0462	0.0165	0.9585
12.4064	-17.5139	290.0855	20.26	-92.0773	-30.1863	347.8834	11.8336	489.3528	-31.968	197.0903	27.7294	503.8537	-0.0592	0.0182	-0.0073	-0.0462	0.0165	0.9585
12.4275	-17.3546	322.4223	22.6501	-102.2079	-32.7056	383.0589	11.3923	461.4463	-30.4754	186.0321	26.5265	474.1099	-0.0592	0.0182	-0.0073	-0.0462	0.0165	0.9585
12.4486	-17.2361	359.6469	25.608	-113.8279	-35.8924	423.1627	11.1693	429.2949	-28.5828	173.2873	24.8621	440.2109	-0.0592	0.0182	-0.0073	-0.0462	0.0165	0.9585
12.4696	-17.2285	401.3519	29.0748	-126.7897	-39.7064	467.7756	11.2729	392.1324	-26.2587	158.5201	22.6484	401.3968	-0.0592	0.0182	-0.0073	-0.0462	0.0165	0.9585
12.4907	-17.3417	446.5787	32.9672	-140.758	-44.0492	515.8782	11.7346	349.783	-23.5209	141.6317	19.8712	357.5016	-0.0592	0.0182	-0.0073	-0.0462	0.0165	0.9585
12.5118	-17.4831	493.7968	37.1565	-155.2119	-48.7307	565.8149	12.4925	302.8275	-20.4311	122.833	16.5937	309.1167	-0.0592	0.0182	-0.0073	-0.0462	0.0165	0.9585
12.5329	-17.4439	540.9317	41.456	-169.4711	-53.4581	615.321	13.3818	252.702	-17.1084	102.6862	12.9783	257.6901	-0.0592	0.0182	-0.0073	-0.0462	0.0165	0.9585
12.5539	-16.9809	585.5346	45.643	-182.7638	-57.8911	661.7313	14.1411	201.6537	-13.7337	82.0906	9.2896	205.4791	-0.0592	0.0182	-0.0073	-0.0462	0.0165	0.9585
12.575	-15.9024	625.1938	49.4899	-194.3629	-61.7079	702.4449	14.4577	152.5019	-10.523	62.1886	5.8599	155.3145	-0.0592	0.0182	-0.0073	-0.0462	0.0165	0.9585
12.5961	-14.1013	657.9819	52.8037	-203.7271	-64.6636	735.434	14.0563	108.1393	-7.6675	44.1659	2.9983	110.0974	-0.0592	0.0182	-0.0073	-0.0462	0.0165	0.9585
12.6171	-11.5798	682.6869	55.4686	-210.5632	-66.6383	759.4958	12.7987	70.8598	-5.2674	28.9757	0.88541	72.1259	-0.0592	0.0182	-0.0073	-0.0462	0.0165	0.9585
12.6382	-8.4505	698.9496	57.457	-214.855	-67.6428	774.3814	10.7505	41.7967	-3.3301	17.1032	-0.46034	42.5323	-0.0592	0.0182	-0.0073	-0.0462	0.0165	0.9585
12.6593	-4.9203	707.3673	58.852	-216.8799	-67.831	780.8844	8.2083	20.8509	-1.8312	8.5254	-1.1472	21.2059	-0.0592	0.0182	-0.0073	-0.0462	0.0165	0.9585
12.6804	-1.2943	709.5045	59.8453	-217.2028	-67.4928	780.8421	5.5974	7.0662	-0.74908	2.8619	-1.3444	7.1662	-0.0592	0.0182	-0.0073	-0.0462	0.0165	0.9585
12.7014	2.0233	707.8757	60.656	-216.6732	-66.9752	777.1002	3.279	-0.95714	-0.039557	-0.4516	-1.2351	-1.0126	-0.0592	0.0182	-0.0073	-0.0462	0.0165	0.9585
12.7225	4.5813	705.8609	61.4431	-216.3997	-66.5749	773.3983	1.4408	-4.746	0.37123	-2.0332	-0.97329	-4.8781	-0.0592	0.0182	-0.0073	-0.0462	0.0165	0.9585
12.7436	5.9627	707.4398	62.2864	-217.6554	-66.4901	774.0641	0.11908	-5.7158	0.56402	-2.4573	-0.66515	-5.8636	-0.0592	0.0182	-0.0073	-0.0462	0.0165	0.9585
12.7646	5.8724	716.6014	63.2447	-221.6715	-66.8631	783.3738	-0.73666	-5.0229	0.61195	-2.1944	-0.37441	-5.1438	-0.0592	0.0182	-0.0073	-0.0462	0.0165	0.9585
12.7857	4.2255	736.2934	64.4346	-229.2951	-67.8505	804.4164	-1.219	-3.5216	0.57485	-1.5935	-0.13409	-3.592	-0.0592	0.0182	-0.0073	-0.0462	0.0165	0.9585
12.8068	1.1776	767.1986	66.0467	-240.6098	-69.6344	837.7837	-1.4318	-1.7847	0.49787	-0.89024	0.042665	-1.7943	-0.0592	0.0182	-0.0073	-0.0462	0.0165	0.9585
12.8279	-2.9002	807.0689	68.2574	-254.7531	-72.3341	880.8636	-1.4676	-0.16269	0.41156	-0.22918	0.15435	-0.1138	-0.0592	0.0182	-0.0073	-0.0462	0.0165	0.9585
12.8489	-7.4858	851.0729	71.0707	-270.0632	-75.8419	928.2218	-1.4	1.1546	0.33453	0.31167	0.20831	1.2472	-0.0592	0.0182	-0.0073	-0.0462	0.0165	0.9585
12.87	-11.981	892.9607	74.2141	-284.4802	-79.7166	972.8919	-1.2816	2.0747	0.27807	0.69621	0.21354	2.1854	-0.0592	0.0182	-0.0073	-0.0462	0.0165	0.9585
12.8911	-15.8047	926.4935	77.1756	-296.0101	-83.2463	1007.9512	-1.1449	2.5554	0.24833	0.91069	0.17623	2.6504	-0.0592	0.0182	-0.0073	-0.0462	0.0165	0.9585
